<?xml version="1.0" standalone="no"?>
<!DOCTYPE svg PUBLIC "-//W3C//DTD SVG 20010904//EN"
 "http://www.w3.org/TR/2001/REC-SVG-20010904/DTD/svg10.dtd">
<svg version="1.0" xmlns="http://www.w3.org/2000/svg"
 width="197.000000pt" height="146.000000pt" viewBox="0 0 197.000000 146.000000"
 preserveAspectRatio="xMidYMid meet">

<g transform="translate(0.000000,146.000000) scale(0.100000,-0.100000)"
fill="#000000" stroke="none">
<path d="M850 1434 c-344 -44 -603 -181 -742 -393 -113 -173 -125 -354 -36
-533 139 -277 497 -458 908 -458 627 0 1083 410 945 849 -77 242 -336 441
-667 511 -91 20 -331 34 -408 24z m435 -118 c158 -41 335 -135 418 -224 l28
-29 -178 -7 c-188 -8 -435 -29 -541 -47 -35 -6 -66 -9 -69 -6 -6 7 -18 112
-28 251 l-7 99 138 -6 c103 -4 165 -12 239 -31z m-452 -143 c4 -60 10 -127 13
-149 l6 -42 -117 -27 c-205 -47 -365 -106 -477 -175 -26 -17 -50 -30 -53 -30
-10 0 47 136 82 194 20 33 71 95 113 136 102 102 216 161 375 194 53 11 52 13
58 -101z m-489 -21 c-90 -79 -192 -251 -227 -382 -18 -64 -21 -41 -7 44 12 73
55 167 105 226 36 44 144 140 155 140 3 -1 -9 -13 -26 -28z m1363 -269 c-14
-187 -81 -398 -158 -495 -55 -68 -104 -98 -163 -98 -135 1 -266 136 -355 365
-44 114 -79 241 -68 251 10 10 171 31 337 44 80 6 163 12 185 14 22 1 82 3
134 4 l94 2 -6 -87z m134 -15 c47 -153 4 -317 -118 -448 -30 -33 -69 -70 -85
-81 l-29 -21 34 54 c72 112 118 254 142 436 8 62 15 120 15 128 0 33 21 -1 41
-68z m-936 -113 c43 -155 128 -326 203 -407 30 -33 30 -33 -39 -9 -241 83
-415 260 -444 453 l-7 46 124 30 123 30 6 -22 c4 -11 19 -66 34 -121z m-354
-26 c79 -286 369 -490 744 -525 l80 -7 -45 -14 c-145 -45 -413 -61 -560 -34
-239 45 -449 159 -562 308 -39 52 -43 61 -35 88 29 94 76 140 207 202 76 36
143 62 148 58 1 -1 12 -35 23 -76z"/>
</g>
</svg>
